Coordinates
version=1
nRows=37
nColumns=38
inDegrees=no

Units are S.I. units (second, meters, Newtons, ...)
If the header above contains a line with 'inDegrees', this indicates whether rotational values are in degrees (yes) or radians (no).

endheader
time	pelvis_tilt	pelvis_list	pelvis_rotation	pelvis_tx	pelvis_ty	pelvis_tz	hip_flexion_r	hip_adduction_r	hip_rotation_r	knee_angle_r	ankle_angle_r	subtalar_angle_r	mtp_angle_r	hip_flexion_l	hip_adduction_l	hip_rotation_l	knee_angle_l	ankle_angle_l	subtalar_angle_l	mtp_angle_l	lumbar_extension	lumbar_bending	lumbar_rotation	arm_flex_r	arm_add_r	arm_rot_r	elbow_flex_r	pro_sup_r	wrist_flex_r	wrist_dev_r	arm_flex_l	arm_add_l	arm_rot_l	elbow_flex_l	pro_sup_l	wrist_flex_l	wrist_dev_l
145	-2.96659	1.39209	-1.65729	0.738966	1.0112	1.09103	-0.0834566	-0.0115474	-0.199162	0.356044	-0.315482	0	0	0.179277	-0.0558439	-0.0950557	0.612001	-0.266538	0	0	-0.299312	-0.133243	0.262391	0.488096	-0.236453	-0.0970163	1.13993	0.738177	0	0	1.09151	0.0834224	1.18557	0.237642	1.5708	0	0
145.01	-2.96455	1.39366	-1.66105	0.740237	1.00736	1.09107	-0.0798562	-0.00975256	-0.194293	0.349312	-0.322976	0	0	0.178111	-0.0600308	-0.103842	0.644528	-0.253385	0	0	-0.29444	-0.141297	0.272739	0.473469	-0.240315	-0.108915	1.14873	0.616452	0	0	1.09339	0.0932105	1.20704	0.228243	1.5708	0	0
145.02	-2.9716	1.38681	-1.65562	0.741282	1.00293	1.09149	-0.0848459	-0.00746991	-0.190959	0.344045	-0.327178	0	0	0.166751	-0.0651786	-0.113037	0.675282	-0.24443	0	0	-0.298068	-0.14032	0.275889	0.470609	-0.241939	-0.105799	1.151	0.616656	0	0	1.09162	0.0932186	1.20965	0.227341	1.5708	0	0
145.03	-2.97868	1.38081	-1.65	0.742149	0.998554	1.09175	-0.0884168	-0.00547195	-0.187507	0.339955	-0.331214	0	0	0.155292	-0.0703398	-0.121585	0.704895	-0.237319	0	0	-0.300511	-0.139277	0.279111	0.466834	-0.243789	-0.103224	1.15376	0.616725	0	0	1.08953	0.0930315	1.2132	0.227398	1.5708	0	0
145.04	-2.98625	1.37551	-1.64374	0.742849	0.994223	1.09188	-0.0908284	-0.00359676	-0.183571	0.336606	-0.336004	0	0	0.143534	-0.0752868	-0.128983	0.733098	-0.231813	0	0	-0.302134	-0.138204	0.282581	0.46204	-0.246308	-0.101194	1.15756	0.616698	0	0	1.08753	0.0929291	1.21848	0.228341	1.5708	0	0
145.05	-2.99532	1.37059	-1.63572	0.743422	0.989959	1.09194	-0.092855	-0.00130466	-0.179371	0.333378	-0.342461	0	0	0.131428	-0.0804853	-0.135892	0.760735	-0.227988	0	0	-0.303404	-0.136982	0.286336	0.456304	-0.24933	-0.0999814	1.1624	0.616605	0	0	1.08593	0.093295	1.22638	0.229438	1.5708	0	0
145.06	-3.00254	1.36695	-1.62849	0.743893	0.985855	1.09191	-0.0933854	0.000796964	-0.176539	0.331065	-0.349888	0	0	0.11888	-0.0841354	-0.138179	0.784016	-0.227207	0	0	-0.302832	-0.136112	0.289054	0.450043	-0.251024	-0.100325	1.16603	0.61653	0	0	1.08385	0.0936992	1.2343	0.229955	1.5708	0	0
145.07	-3.04078	1.3282	-1.57859	0.742416	0.98147	1.09606	-0.162659	0.00828215	-0.253351	0.0953965	-0.698132	0	0	0.0647346	-0.0937044	-0.135693	0.798608	-0.227533	0	0	-0.340218	-0.134357	0.288305	0.442726	-0.263291	-0.0981883	1.17317	0.699414	0	0	1.10111	0.238719	1.28681	0	1.5708	0	0
145.08	-3.01952	1.3689	-1.61124	0.744448	0.9781	1.09094	-0.0818343	0.00544686	-0.167875	0.334494	-0.339974	0	0	0.103507	-0.0926727	-0.142728	0.832201	-0.219418	0	0	-0.292109	-0.126134	0.290228	0.438073	-0.251084	-0.0983046	1.17401	0.619484	0	0	1.07035	0.0810516	1.22167	0.25239	1.5708	0	0
145.09	-3.02743	1.37038	-1.6023	0.744519	0.974173	1.09052	-0.07581	0.00753614	-0.16385	0.334796	-0.341762	0	0	0.0948089	-0.0954068	-0.141242	0.85162	-0.217794	0	0	-0.287173	-0.12203	0.290418	0.431071	-0.250941	-0.0997928	1.17903	0.619319	0	0	1.0659	0.0753824	1.22606	0.262999	1.5708	0	0
145.1	-3.03463	1.37227	-1.59362	0.744489	0.970187	1.09011	-0.0694626	0.00940292	-0.160138	0.334624	-0.343533	0	0	0.0859335	-0.0973752	-0.138231	0.869031	-0.216707	0	0	-0.282096	-0.118502	0.290292	0.423794	-0.250833	-0.101976	1.18416	0.619133	0	0	1.06176	0.0702024	1.22973	0.273583	1.5708	0	0
145.11	-3.04109	1.37371	-1.58538	0.744309	0.966108	1.08973	-0.0633859	0.0108008	-0.156774	0.334876	-0.344794	0	0	0.0757796	-0.0985981	-0.134476	0.884009	-0.216609	0	0	-0.277474	-0.115509	0.289873	0.41704	-0.251117	-0.104048	1.18833	0.618888	0	0	1.05792	0.0663872	1.23168	0.2826	1.5708	0	0
145.12	-3.03913	1.31656	-1.57963	0.745159	0.957155	1.09331	-0.121474	0.0118661	-0.164782	0.327113	-0.349104	0	0	0.00505503	-0.0998823	-0.129477	0.895121	-0.219098	0	0	-0.500913	-0.170412	0.00705756	0.62726	-0.131969	0.116192	1.19529	0.59693	0	0	0.596103	-0.0197357	-0.124437	1.23881	1.5708	0	0
145.13	-3.05745	1.37368	-1.56421	0.743593	0.957621	1.08907	-0.0539107	0.0138793	-0.151538	0.336191	-0.350509	0	0	0.0517129	-0.101619	-0.12766	0.911119	-0.216626	0	0	-0.271899	-0.105626	0.284279	0.407933	-0.25092	-0.102781	1.19606	0.669544	0	0	1.05233	0.0514159	1.24967	0.308304	1.5708	0	0
145.14	-3.05263	1.31997	-1.56033	0.744348	0.94893	1.09241	-0.10881	0.0156064	-0.159927	0.327703	-0.354887	0	0	-0.0159483	-0.103607	-0.122081	0.919262	-0.21953	0	0	-0.489744	-0.159592	0.00508641	0.61515	-0.133674	0.115855	1.20216	0.652913	0	0	0.584481	-0.00973338	-0.13563	1.23854	1.5708	0	0
145.15	-3.05961	1.32073	-1.54993	0.743813	0.944682	1.09203	-0.103868	0.0174802	-0.158067	0.326973	-0.357052	0	0	-0.0280641	-0.105335	-0.118134	0.928423	-0.219521	0	0	-0.485085	-0.154132	0.000878722	0.612991	-0.133992	0.119652	1.19994	0.651846	0	0	0.577236	-0.00707977	-0.142106	1.24102	1.5708	0	0
145.16	-3.06729	1.32267	-1.53886	0.743187	0.940429	1.09152	-0.0976268	0.0193997	-0.155779	0.326346	-0.359605	0	0	-0.0389609	-0.107256	-0.114775	0.936387	-0.219097	0	0	-0.479152	-0.14911	-0.00167886	0.60847	-0.134871	0.120031	1.2001	0.650906	0	0	0.570707	-0.00373559	-0.146314	1.24219	1.5708	0	0
145.17	-3.07532	1.32547	-1.52749	0.742507	0.936136	1.09093	-0.0903948	0.0212721	-0.153201	0.325775	-0.362389	0	0	-0.048947	-0.109319	-0.11203	0.942819	-0.218498	0	0	-0.472452	-0.144772	-0.00334935	0.602452	-0.136175	0.11858	1.20189	0.649972	0	0	0.564886	-0.000179219	-0.148786	1.24268	1.5708	0	0
145.18	-3.08402	1.32911	-1.5156	0.741785	0.931805	1.09027	-0.0821993	0.0231868	-0.150387	0.324965	-0.365559	0	0	-0.0581506	-0.111444	-0.109648	0.947449	-0.217907	0	0	-0.464998	-0.140989	-0.00423445	0.595303	-0.137952	0.115957	1.20485	0.648893	0	0	0.559589	0.00334443	-0.149628	1.24257	1.5708	0	0
145.19	-3.09311	1.33547	-1.50364	0.741053	0.927558	1.08936	-0.0712487	0.0250532	-0.146602	0.323607	-0.370278	0	0	-0.0645153	-0.113285	-0.107465	0.950443	-0.217318	0	0	-0.454512	-0.1389	-0.00110232	0.582948	-0.14082	0.103636	1.21166	0.58284	0	0	0.556107	0.00821286	-0.145511	1.23898	1.5708	0	0
145.2	-3.13344	1.39107	-1.46589	0.739274	0.927218	1.08508	-0.00629323	0.0270842	-0.133201	0.328549	-0.371498	0	0	-0.0200426	-0.11417	-0.107391	0.953823	-0.216271	0	0	-0.232141	-0.0854888	0.277746	0.351073	-0.253584	-0.137794	1.22898	0.65169	0	0	1.04152	0.0434248	1.33792	0.347068	1.5708	0	0
145.21	-3.11143	1.33874	-1.47988	0.739333	0.91816	1.08817	-0.0609979	0.0292517	-0.139938	0.317161	-0.375964	0	0	-0.087588	-0.117635	-0.105742	0.949617	-0.220333	0	0	-0.444406	-0.129519	-0.00219822	0.571326	-0.145563	0.100694	1.21886	0.635165	0	0	0.547442	0.0146869	-0.14575	1.2377	1.5708	0	0
145.22	-3.1209	1.33792	-1.46791	0.738354	0.913125	1.0877	-0.0584322	0.0312263	-0.13729	0.313756	-0.37848	0	0	-0.10161	-0.120255	-0.106256	0.946206	-0.223066	0	0	-0.441976	-0.122891	-0.0048934	0.569897	-0.147259	0.102588	1.21867	0.633831	0	0	0.542748	0.0168899	-0.148283	1.23826	1.5708	0	0
145.23	-3.13072	1.33691	-1.4557	0.737302	0.907956	1.08726	-0.0566101	0.0330459	-0.134223	0.308276	-0.382972	0	0	-0.115789	-0.122876	-0.107238	0.939994	-0.229257	0	0	-0.440088	-0.116617	-0.00658266	0.567841	-0.149643	0.102683	1.2198	0.632352	0	0	0.539399	0.0197208	-0.14958	1.23781	1.5708	0	0
145.24	-3.14031	1.33493	-1.44361	0.736171	0.902647	1.08694	-0.0576769	0.0353714	-0.130598	0.297873	-0.395308	0	0	-0.13112	-0.125465	-0.108589	0.930242	-0.246034	0	0	-0.439555	-0.110608	-0.00738413	0.565473	-0.152682	0.0988503	1.22114	0.569095	0	0	0.537568	0.0231285	-0.149706	1.23628	1.5708	0	0
145.25	3.13407	1.33444	-1.43238	0.734987	0.897309	1.08644	-0.0570358	0.0373859	-0.127468	0.288863	-0.401179	0	0	-0.144696	-0.127447	-0.110226	0.918401	-0.262763	0	0	-0.43753	-0.105544	-0.00802444	0.56221	-0.155749	0.0970801	1.22363	0.568903	0	0	0.535669	0.0264534	-0.149045	1.2348	1.5708	0	0
145.26	3.12504	1.33582	-1.42103	0.733718	0.891913	1.0857	-0.0533082	0.0386897	-0.125416	0.283046	-0.398784	0	0	-0.155988	-0.128903	-0.111798	0.905468	-0.270657	0	0	-0.433704	-0.101065	-0.00922337	0.559063	-0.158829	0.0985489	1.22647	0.62734	0	0	0.53322	0.0297563	-0.148843	1.23414	1.5708	0	0
145.27	3.11593	1.33658	-1.40934	0.732324	0.886317	1.08499	-0.0510596	0.0398683	-0.123912	0.273892	-0.404137	0	0	-0.167862	-0.130179	-0.11299	0.890086	-0.281107	0	0	-0.431333	-0.0970162	-0.010063	0.555845	-0.162517	0.0966831	1.22976	0.625567	0	0	0.532075	0.0334738	-0.147449	1.23318	1.5708	0	0
145.28	3.10723	1.33829	-1.398	0.730806	0.880575	1.08416	-0.0479143	0.0404758	-0.121514	0.263198	-0.410989	0	0	-0.178648	-0.130734	-0.114404	0.87158	-0.284431	0	0	-0.428548	-0.0937917	-0.0109482	0.552907	-0.166656	0.0940691	1.233	0.623864	0	0	0.531455	0.0373443	-0.145352	1.23234	1.5708	0	0
145.29	3.10005	1.34063	-1.3883	0.729179	0.874668	1.08326	-0.0450696	0.0408658	-0.117188	0.250014	-0.418826	0	0	-0.188734	-0.130147	-0.116446	0.849078	-0.280979	0	0	-0.425769	-0.0915423	-0.0117476	0.550418	-0.171299	0.0908396	1.23618	0.622171	0	0	0.531442	0.0412005	-0.142602	1.23196	1.5708	0	0
145.3	3.09413	1.3427	-1.37996	0.727518	0.868572	1.08238	-0.0429283	0.0409388	-0.113056	0.235152	-0.431786	0	0	-0.198979	-0.128837	-0.119115	0.822132	-0.270392	0	0	-0.424158	-0.0905047	-0.0100978	0.545674	-0.177047	0.0813057	1.2424	0.568263	0	0	0.533866	0.0463449	-0.136922	1.22971	1.5708	0	0
145.31	3.02886	1.39257	-1.3181	0.725038	0.866175	1.07799	0.0144552	0.0401681	-0.100871	0.230419	-0.437574	0	0	-0.157631	-0.125817	-0.124308	0.795227	-0.256945	0	0	-0.21718	-0.0468257	0.252216	0.317771	-0.283068	-0.159944	1.26146	0.577118	0	0	1.02725	0.0373945	1.3348	0.410675	1.5708	0	0
145.32	3.08094	1.3459	-1.36175	0.723996	0.85573	1.0804	-0.0374565	0.0406522	-0.108256	0.2096	-0.448595	0	0	-0.217315	-0.126948	-0.126154	0.76197	-0.249214	0	0	-0.422236	-0.0842897	-0.0155135	0.547008	-0.185478	0.0823393	1.24692	0.61042	0	0	0.534685	0.0531435	-0.134949	1.23148	1.5708	0	0
145.33	3.07373	1.3478	-1.3518	0.722106	0.848972	1.07927	-0.0334112	0.0401631	-0.106424	0.19872	-0.453431	0	0	-0.224019	-0.126069	-0.129376	0.732748	-0.241959	0	0	-0.421118	-0.079546	-0.0213246	0.551697	-0.188382	0.086146	1.24504	0.608832	0	0	0.53378	0.0550568	-0.136676	1.23416	1.5708	0	0
145.34	3.06885	1.34968	-1.34414	0.720144	0.841989	1.07819	-0.0299287	0.0389488	-0.103663	0.186245	-0.460391	0	0	-0.229259	-0.124345	-0.132748	0.706331	-0.232753	0	0	-0.420951	-0.0757735	-0.0268285	0.556073	-0.191879	0.0891054	1.24459	0.607118	0	0	0.533833	0.0574262	-0.137714	1.23693	1.5708	0	0
145.35	3.06636	1.35145	-1.33901	0.718178	0.834811	1.07721	-0.0270828	0.0371337	-0.100014	0.172341	-0.469139	0	0	-0.232138	-0.122183	-0.138507	0.684892	-0.222321	0	0	-0.421846	-0.0730276	-0.0322072	0.56072	-0.195709	0.0920236	1.24458	0.605035	0	0	0.534525	0.0598763	-0.138247	1.24013	1.5708	0	0
145.36	3.06632	1.35246	-1.3364	0.716205	0.82747	1.07642	-0.0272342	0.0350809	-0.0945309	0.151932	-0.491411	0	0	-0.233675	-0.119386	-0.145905	0.667353	-0.206579	0	0	-0.424594	-0.0712107	-0.0373011	0.565445	-0.19928	0.0919549	1.24441	0.558487	0	0	0.536244	0.0618885	-0.137481	1.2437	1.5708	0	0
